<svg width="48" height="48" viewBox="0 0 48 48" fill="none" xmlns="http://www.w3.org/2000/svg">
<path d="M41.542 34.5C41.8245 33.9927 42 33.4211 42 32.9079V15.092C42 14.5788 41.8247 14.0074 41.5421 13.5001L24 24L41.542 34.5Z" fill="#00599C"/>
<path d="M25.5588 44.615L40.4412 35.7071C40.8699 35.4505 41.2595 35.0073 41.542 34.4999L24 24L6.45801 34.5001C6.74048 35.0073 7.13024 35.4506 7.55883 35.7071L22.4412 44.615C23.2985 45.1282 24.7015 45.1282 25.5588 44.615Z" fill="#004482"/>
<path d="M41.5421 13.4999C41.2595 12.9925 40.8698 12.5494 40.4412 12.2928L25.5588 3.38493C24.7015 2.87169 23.2985 2.87169 22.4412 3.38493L7.55882 12.2928C6.70141 12.8059 6 14.0656 6 15.092V32.9079C6 33.4211 6.17541 33.9927 6.458 34.4999L24 24L41.5421 13.4999Z" fill="#659AD2"/>
<path d="M24.0578 36C17.4091 36 12 30.6168 12 24C12 17.3832 17.4091 12 24.0578 12C28.2687 12 32.2012 14.2135 34.3786 17.7927L29.2148 20.8897C28.1238 19.104 26.1598 18 24.0578 18C20.7334 18 18.0289 20.6915 18.0289 24C18.0289 27.3084 20.7334 30 24.0578 30C26.1542 30 28.1131 28.9022 29.206 27.1248L34.3808 30.2038C32.2037 33.7851 28.2701 36 24.0578 36Z" fill="white"/>
<path d="M34.5 23.2421H32.9999V21.75H31.5001V23.2421H30V24.7343H31.5001V26.2266H32.9999V24.7343H34.5V23.2421Z" fill="white"/>
<path d="M40.5 23.25H38.9999V21.75H37.5001V23.25H36V24.7499H37.5001V26.25H38.9999V24.7499H40.5V23.25Z" fill="white"/>
</svg>
