<svg width="127" height="100" viewBox="0 0 127 100" fill="none" xmlns="http://www.w3.org/2000/svg">
<path d="M11.0477 0H91.3103C94.6635 0.25203 97.788 1.79658 100.025 4.30814C102.262 6.81969 103.438 10.1021 103.303 13.4636C111.052 9.04991 119.078 5.1184 126.919 0.890173C126.919 7.4736 126.919 14.0385 126.919 20.6219C108.543 30.5125 90.0993 40.23 71.5876 49.7744C89.9201 59.7516 108.66 68.8942 126.956 78.9826C126.845 85.6031 126.956 92.2421 126.956 98.8627C119.115 94.6159 111.144 90.6287 103.396 86.2151C103.551 89.5831 102.389 92.8792 100.158 95.4058C97.9265 97.9325 94.8 99.4914 91.4401 99.7528H12.0672C5.96871 99.4375 0.278046 95.0795 0 88.6259V67.188C11.1218 61.6246 22.2437 55.6717 33.3655 49.7744C22.1139 44.3593 11.2516 38.2024 0 32.7317V11.2011C0.276354 8.34897 1.52526 5.67887 3.53701 3.63919C5.54876 1.59951 8.20079 0.314482 11.0477 0ZM11.0477 18.5449C24.8573 25.629 38.5928 32.843 52.3839 39.9642C65.8413 32.7132 79.5027 25.8515 92.9601 18.5634C65.7116 18.5263 38.4074 18.5634 11.1218 18.5078L11.0477 18.5449ZM11.1775 81.1894C38.5557 81.3749 65.971 81.1894 93.3678 81.3007C79.7807 73.8827 65.9154 67.1138 52.3653 59.6588C38.7596 66.8913 25.0427 73.9754 11.2516 81.1523L11.1775 81.1894Z" fill="black"/>
</svg>
