<svg width="135" height="112" viewBox="0 0 135 112" fill="none" xmlns="http://www.w3.org/2000/svg">
<path d="M52.8245 23.7949C54.61 25.3833 56.4295 27.2021 58.2099 29.1167L33.6172 46.4674V37.3425L52.8245 23.7949Z" fill="#E50204"/>
<path d="M58.9805 74.15L48.4313 73.473L46.3799 73.9213L75.3658 53.4766L78.7232 60.2248L58.9805 74.15Z" fill="#750886"/>
<path d="M46.3802 73.9216L35.6488 76.2668L22.7812 81.5154L22.8331 81.4139L72.0089 46.7285L75.3662 53.4768L46.3802 73.9216Z" fill="#004DFF"/>
<path d="M22.833 81.4146L29.1302 69.072L29.5523 67.5589L67.7772 40.5977C69.312 42.6231 70.6039 44.4224 71.5424 45.7919L72.0087 46.7293L22.833 81.4146Z" fill="#018126"/>
<path d="M29.5518 67.5583L32.7176 56.209L63.1415 34.75C64.8286 36.7829 66.4002 38.7809 67.7765 40.5971L29.5518 67.5583Z" fill="#FDEF03"/>
<path d="M33.6166 46.4588V52.9869L32.7178 56.209L63.1418 34.7499C61.5752 32.8622 59.909 30.9444 58.2071 29.1143L33.6166 46.4588Z" fill="#FF8B01"/>
<path d="M86.7853 79.8387C86.0196 74.6014 84.4712 69.5111 82.6381 64.5591C79.8756 57.3285 76.3184 50.4122 72.0996 43.928C67.9763 37.5685 63.2783 31.5728 57.9887 26.1477C52.5472 20.5193 46.5191 15.4717 40.1125 10.981C34.2055 6.88991 27.9915 3.2037 21.4093 0.301532C20.9011 0.0572646 20.3043 -0.13406 19.7603 0.120457C18.8139 0.422801 18.229 1.56557 18.6058 2.49993C18.8633 3.15758 19.2811 3.73665 19.6085 4.36355C22.7462 10.1218 25.4456 16.1294 27.5772 22.3368C29.6883 28.5477 31.2469 34.996 31.5743 41.5673C31.7619 46.2357 31.3662 50.9092 30.7455 55.5332C30.1657 59.0162 29.3916 62.4718 28.3138 65.8369C26.3289 71.8001 23.5545 77.6044 19.4414 82.3992C18.8702 83.1166 17.9152 83.7299 18.0005 84.7633C18.0141 86.0717 19.5915 87.0505 20.7374 86.3553C24.8522 83.6906 29.3182 81.6049 33.9105 79.9138C39.531 77.9323 45.4158 76.5778 51.3842 76.3438C54.7504 76.1986 58.1268 76.3386 61.481 76.67C69.3115 77.589 77.038 79.5107 84.3331 82.5205C85.2147 82.9356 86.3249 82.4385 86.7273 81.5793C86.9677 81.0241 86.862 80.4109 86.7887 79.8335L86.7853 79.8387ZM73.4485 75.0541C70.9145 74.3589 68.3174 73.9353 65.7373 73.4553C61.2389 72.8232 56.691 72.4064 52.1396 72.5568C44.4677 72.7959 36.8896 74.5878 29.7957 77.4899C28.689 77.8538 27.7 78.5029 26.5796 78.8326C30.986 71.3662 33.5779 62.9125 34.6676 54.3341C35.0513 51.56 35.2969 48.7655 35.302 45.9624C35.4248 44.6266 35.4333 43.284 35.3037 41.9482C35.3088 38.672 34.7239 35.435 34.1663 32.2168C32.4985 24.0979 29.6098 16.2745 26.08 8.7928C25.6519 7.92505 25.2018 7.06756 24.8334 6.17419C25.2052 6.31255 25.5735 6.46457 25.9248 6.65588C40.6428 14.6108 53.8688 25.5072 63.9843 38.8872C71.0492 48.2223 76.8232 58.6079 80.4895 69.7537C81.3319 72.3979 82.0958 75.0712 82.6057 77.8008C79.584 76.7896 76.5589 75.7596 73.4468 75.0558L73.4485 75.0541Z" fill="black"/>
<path d="M112.567 78.3424C109.891 71.0759 106.667 64.011 102.929 57.2313C99.3596 50.8291 95.3063 44.6507 90.3815 39.2016C87.7042 36.2175 84.8786 33.3717 82.0274 30.5566C77.1845 25.919 72.0841 21.4863 66.3834 17.9333C63.6857 16.2883 60.8618 14.7629 57.7856 13.9755C56.9704 13.8098 56.1076 13.5228 55.2822 13.7603C53.8873 14.1309 53.5258 16.191 54.7024 17.0177C57.4803 18.8318 60.1132 20.8662 62.5927 23.068C67.8193 27.6271 72.403 32.9327 76.0488 38.8412C83.3746 50.5233 88.915 63.2782 92.9155 76.4635C93.248 77.4644 93.2412 78.708 94.1433 79.4117C94.6514 79.8388 95.3574 79.7602 95.9662 79.6594C97.7482 79.2973 99.5626 79.0308 101.387 79.0786C102.767 79.1111 104.075 79.6099 105.386 79.9925C106.648 80.4383 107.9 80.9098 109.136 81.4222C109.905 81.7297 110.655 82.2507 111.52 82.1704C112.34 82.0901 113.037 81.3881 113.138 80.5716C113.234 79.7824 112.821 79.0633 112.572 78.3424H112.567ZM103.584 75.5684C101.275 75.1157 98.8958 75.3617 96.5903 75.7033C93.0093 63.7018 88.1016 52.088 81.8689 41.2224C80.2983 38.5576 78.6834 35.9151 76.9253 33.3665C74.9285 30.5173 72.7014 27.8355 70.3277 25.2955C76.1597 29.8341 81.4204 35.061 86.4509 40.464C91.2904 45.5765 95.2875 51.4286 98.7867 57.5216C101.938 63.0339 104.683 68.7716 107.108 74.6357C107.419 75.3617 107.717 76.0979 107.951 76.8546C106.482 76.4669 105.069 75.8929 103.584 75.5667V75.5684Z" fill="black"/>
<path d="M133.559 108.753C132.887 107.967 131.784 108.197 130.896 107.948C128.984 107.456 127.516 106.05 126.063 104.795C124.211 103.143 122.274 101.438 119.866 100.675C117.508 99.8257 114.839 99.8923 112.516 100.837C109.849 101.841 107.783 103.867 105.586 105.604C104.098 106.795 102.375 107.839 100.435 107.984C98.7091 108.095 96.8708 107.699 95.51 106.585C97.408 105.714 99.2718 104.779 101.11 103.795C105.515 101.385 109.959 99.0194 114.096 96.1617C117.862 93.608 121.49 90.851 125.062 88.0308C125.526 87.6585 126.058 87.281 126.22 86.6729C126.597 85.4976 125.534 84.1345 124.295 84.2814C118.819 84.5735 113.349 85.0381 107.875 85.3354C101.893 85.6787 95.9158 86.1485 89.9355 86.502C84.0149 86.8078 78.1045 87.3203 72.1855 87.6363C66.27 87.9779 60.3596 88.451 54.4458 88.7773C48.5882 89.1138 42.7392 89.5989 36.8783 89.903C31.1674 90.2788 25.4548 90.6614 19.7456 91.0389C16.8057 91.2097 13.8591 91.3532 10.926 91.6128C9.79202 91.6607 8.95644 92.9503 9.34183 94.0077C9.57204 94.6295 9.92504 95.1949 10.2252 95.7859C11.1733 97.5077 12.0515 99.2688 12.9962 100.994C11.0624 102.229 9.18496 103.546 7.30406 104.86C5.77957 105.847 4.2943 106.959 2.56006 107.547C1.8609 107.668 1.0526 107.623 0.546142 108.22C-0.429263 109.096 -0.0336513 110.895 1.22142 111.272C2.42362 111.605 3.67529 111.151 4.79564 110.722C8.50798 108.954 11.6184 106.19 15.1465 104.11C16.1015 103.596 17.0649 102.977 18.1733 102.894C19.3517 103.005 20.2827 103.824 21.2155 104.472C23.8075 106.489 26.2443 108.778 29.237 110.198C31.8137 111.463 34.8456 111.928 37.6371 111.139C40.9487 110.307 43.5083 107.922 46.1787 105.939C47.4406 105.013 48.8219 104.117 50.4112 103.932C51.8623 103.717 53.3578 104.106 54.5856 104.887C57.0293 106.404 58.9374 108.645 61.4578 110.047C63.9867 111.568 67.1551 112.112 70.0028 111.24C72.5965 110.556 74.7076 108.794 76.6908 107.07C78.2324 105.823 79.7995 104.419 81.8032 104.021C83.8512 103.587 86.0339 104.096 87.7204 105.329C90.5477 107.289 92.8771 110.1 96.2467 111.176C99.1644 112.241 102.493 111.875 105.192 110.374C107.341 109.248 109.077 107.518 110.989 106.057C112.223 105.124 113.57 104.222 115.131 103.978C116.906 103.649 118.799 104.026 120.316 105.005C122.591 106.433 124.324 108.558 126.571 110.022C128.299 111.199 130.381 112 132.497 111.865C133.887 111.708 134.639 109.728 133.558 108.756L133.559 108.753ZM92.0603 103.831C91.4617 103.512 90.9774 103.02 90.4266 102.634C88.3616 101.107 85.8514 100.043 83.2526 100.097C81.1449 100.09 79.0577 100.775 77.2945 101.918C74.9123 103.362 73.0808 105.557 70.6559 106.938C68.9473 107.979 66.7816 108.114 64.8939 107.543C61.7937 106.385 59.6912 103.669 56.9457 101.939C54.9778 100.644 52.5956 99.8684 50.227 100.142C47.8584 100.417 45.691 101.568 43.8255 103.013C41.5149 104.682 39.3867 106.81 36.556 107.564C33.9793 108.235 31.3123 107.292 29.1739 105.859C26.553 104.209 24.3907 101.94 21.768 100.292C20.2009 99.3098 18.2364 98.7683 16.434 99.3987C15.6069 98.0321 14.9078 96.5904 14.1745 95.1727C20.2077 94.7149 26.2443 94.3459 32.2826 93.9975C38.3311 93.5499 44.3814 93.1861 50.4316 92.8222C55.2626 92.4704 60.0953 92.1543 64.9297 91.8896C72.1173 91.3703 79.3084 90.9484 86.5012 90.4889C93.0579 89.985 99.6248 89.7031 106.183 89.1992C109.169 89.0386 112.143 88.75 115.132 88.656C116.128 88.5638 117.129 88.4613 118.13 88.5108C117.854 88.8183 117.547 89.0984 117.214 89.3444C114.288 91.4779 111.354 93.608 108.252 95.4801C103.787 98.0817 99.2939 100.647 94.625 102.861C93.7826 103.215 92.9504 103.625 92.062 103.835L92.0603 103.831Z" fill="black"/>
</svg>
