<svg width="187" height="187" viewBox="0 0 187 187" fill="none" xmlns="http://www.w3.org/2000/svg">
<mask id="mask0_201_198" style="mask-type:luminance" maskUnits="userSpaceOnUse" x="154" y="85" width="30" height="34">
<path d="M154.47 85.8164H183.33V118.402H154.47V85.8164Z" fill="white"/>
</mask>
<g mask="url(#mask0_201_198)">
<path d="M168.917 85.8193C168.478 85.8193 168.051 85.9097 167.674 86.1235L155.732 93.0232C154.959 93.4687 154.49 94.3101 154.49 95.205V108.98C154.49 109.875 154.959 110.715 155.732 111.162L158.851 112.96C160.366 113.707 160.925 113.695 161.615 113.695C163.858 113.695 165.138 112.333 165.138 109.966V96.3749C165.138 96.183 164.972 96.0455 164.784 96.0455H163.288C163.096 96.0455 162.933 96.1864 162.933 96.3749V109.972C162.933 111.021 161.841 112.077 160.068 111.19L156.826 109.287C156.711 109.225 156.623 109.111 156.623 108.983V95.208C156.623 95.0773 156.71 94.9441 156.826 94.8781L168.743 88.0031C168.854 87.939 168.988 87.939 169.098 88.0031L181.015 94.8781C181.128 94.9461 181.218 95.0734 181.218 95.208V108.983C181.218 109.115 181.152 109.249 181.04 109.313L169.098 116.188C168.992 116.249 168.852 116.249 168.743 116.188L165.675 114.362C165.583 114.308 165.459 114.312 165.371 114.362C164.524 114.842 164.365 114.898 163.571 115.174C163.375 115.242 163.077 115.347 163.673 115.681L167.679 118.043C168.06 118.264 168.485 118.373 168.921 118.373C169.364 118.373 169.782 118.267 170.164 118.043L182.106 111.168C182.879 110.718 183.349 109.881 183.349 108.987V95.2114C183.349 94.3165 182.879 93.4769 182.106 93.0295L170.164 86.1298C169.79 85.916 169.36 85.8257 168.921 85.8257L168.917 85.8193ZM172.111 95.6622C168.711 95.6622 166.686 97.1105 166.686 99.5182C166.686 102.127 168.696 102.848 171.959 103.171C175.864 103.553 176.169 104.127 176.169 104.896C176.169 106.23 175.106 106.798 172.593 106.798C169.437 106.798 168.744 106.01 168.511 104.436C168.484 104.268 168.354 104.132 168.182 104.132H166.631C166.585 104.133 166.54 104.143 166.497 104.161C166.454 104.179 166.416 104.205 166.383 104.238C166.35 104.272 166.324 104.309 166.306 104.352C166.287 104.395 166.278 104.44 166.277 104.487C166.277 106.498 167.37 108.876 172.59 108.876C176.369 108.876 178.549 107.395 178.549 104.791C178.549 102.217 176.788 101.522 173.122 101.036C169.422 100.543 169.066 100.307 169.066 99.4381C169.066 98.7215 169.365 97.7634 172.109 97.7634C174.559 97.7634 175.464 98.2925 175.836 99.9453C175.868 100.1 176.005 100.227 176.165 100.227H177.716C177.811 100.227 177.903 100.169 177.97 100.1C178.034 100.027 178.08 99.9453 178.071 99.8466C177.832 96.9997 175.934 95.6607 172.112 95.6607L172.111 95.6622Z" fill="#83CD29"/>
</g>
<mask id="mask1_201_198" style="mask-type:luminance" maskUnits="userSpaceOnUse" x="3" y="67" width="143" height="52">
<path d="M3.20654 67.6592H145.14V118.652H3.20654V67.6592Z" fill="white"/>
</mask>
<g mask="url(#mask1_201_198)">
<path d="M98.7065 67.7618C98.5709 67.7622 98.4441 67.7958 98.3261 67.8633C98.2687 67.8973 98.2163 67.9376 98.1691 67.9848C98.122 68.0324 98.0822 68.0848 98.0487 68.1427C98.0151 68.2005 97.9899 68.2617 97.9724 68.3263C97.9554 68.3904 97.9461 68.4565 97.9461 68.5231V87.9294C97.9461 88.1199 97.8572 88.2904 97.6921 88.3861C97.6099 88.4342 97.521 88.458 97.4258 88.458C97.3306 88.458 97.2422 88.4342 97.1596 88.3861L93.99 86.5599C93.8749 86.4928 93.7525 86.4423 93.6232 86.4073C93.4945 86.3728 93.3633 86.3554 93.2297 86.3554C93.0961 86.3554 92.965 86.3728 92.8357 86.4073C92.707 86.4423 92.5845 86.4928 92.4689 86.5599L79.818 93.8658C79.3448 94.1383 79.0567 94.664 79.0567 95.21V109.822C79.0562 109.955 79.0737 110.087 79.1082 110.216C79.1427 110.345 79.1932 110.468 79.2598 110.584C79.3268 110.699 79.4074 110.805 79.5017 110.899C79.5964 110.994 79.7014 111.074 79.8175 111.141L92.4699 118.447C92.585 118.514 92.7075 118.565 92.8367 118.6C92.9654 118.634 93.0966 118.652 93.2302 118.652C93.3638 118.652 93.495 118.634 93.6242 118.6C93.753 118.565 93.8754 118.514 93.991 118.447L106.643 111.141C106.759 111.074 106.864 110.994 106.959 110.899C107.053 110.805 107.134 110.699 107.201 110.584C107.268 110.468 107.318 110.345 107.353 110.216C107.387 110.087 107.404 109.955 107.404 109.822V73.3935C107.404 72.8391 107.102 72.3193 106.618 72.0492L99.0873 67.8361C98.9688 67.7705 98.8381 67.7588 98.7069 67.7598L98.7065 67.7618ZM17.3158 86.0012C17.0743 86.0114 16.8479 86.0532 16.6312 86.179L3.97932 93.4849C3.86321 93.5514 3.75827 93.6321 3.66354 93.7263C3.5688 93.8211 3.48815 93.926 3.42159 94.0416C3.35455 94.1577 3.30402 94.2802 3.27002 94.4094C3.23552 94.5386 3.21852 94.6703 3.219 94.8039L3.24475 114.414C3.24475 114.687 3.38564 114.94 3.62516 115.073C3.8603 115.214 4.15179 115.214 4.38548 115.073L11.8905 110.76C12.3667 110.478 12.6766 109.986 12.6766 109.442V100.283C12.6766 99.7365 12.9637 99.2356 13.4379 98.964L16.6327 97.1125C16.8678 96.9755 17.121 96.908 17.393 96.9095C17.6651 96.9075 17.9187 96.9755 18.1538 97.1125L21.3472 98.9631C21.8209 99.2346 22.108 99.736 22.108 100.282V109.439C22.108 109.985 22.4252 110.48 22.8936 110.758L30.3986 115.071C30.6347 115.212 30.9257 115.212 31.1594 115.071C31.3917 114.937 31.5398 114.684 31.5398 114.412L31.5651 94.8024C31.5661 94.6683 31.5491 94.5372 31.5151 94.4075C31.4806 94.2782 31.4305 94.1558 31.3635 94.0397C31.2964 93.9241 31.2158 93.8186 31.121 93.7244C31.0263 93.6301 30.9209 93.5495 30.8048 93.4834L18.1529 86.18C17.9391 86.0546 17.7112 86.0124 17.4683 86.0022H17.3167L17.3158 86.0012ZM131.008 86.179C130.736 86.1785 130.482 86.246 130.247 86.3821L117.594 93.6884C117.122 93.9615 116.833 94.4609 116.833 95.007V109.619C116.833 110.168 117.143 110.666 117.619 110.937L130.17 118.094C130.633 118.359 131.199 118.379 131.666 118.119L139.273 113.883C139.514 113.749 139.677 113.499 139.678 113.224C139.678 112.949 139.535 112.701 139.297 112.564L126.568 105.258C126.33 105.122 126.163 104.846 126.163 104.573V100.004C126.163 99.7307 126.332 99.4805 126.568 99.3444L130.524 97.061C130.759 96.925 131.048 96.925 131.285 97.061L135.249 99.3444C135.307 99.3775 135.36 99.4178 135.407 99.4649C135.454 99.512 135.495 99.565 135.528 99.6228C135.562 99.6806 135.587 99.7418 135.604 99.8065C135.621 99.8711 135.63 99.9367 135.63 100.004V103.606C135.629 103.673 135.638 103.738 135.655 103.803C135.673 103.867 135.698 103.929 135.731 103.987C135.764 104.045 135.805 104.097 135.852 104.144C135.899 104.192 135.952 104.232 136.01 104.265C136.247 104.402 136.534 104.403 136.771 104.265L144.351 99.8512C144.822 99.5772 145.112 99.0763 145.112 98.5321V95.0065C145.112 94.8729 145.095 94.7417 145.061 94.6125C145.026 94.4832 144.975 94.3608 144.909 94.2452C144.842 94.1291 144.761 94.0241 144.667 93.9294C144.572 93.8352 144.467 93.7545 144.351 93.6875L131.775 86.3816C131.54 86.2451 131.287 86.1775 131.014 86.1785L131.008 86.179ZM93.1773 97.0878C93.2492 97.0873 93.3167 97.1043 93.3803 97.1383L97.7159 99.6495C97.8334 99.7176 97.9189 99.8434 97.9189 99.9794V105.002C97.9189 105.138 97.8344 105.264 97.7159 105.332L93.3803 107.843C93.2623 107.91 93.118 107.91 92.9994 107.843L88.6639 105.332C88.5459 105.264 88.4608 105.138 88.4608 105.002V99.9809C88.4608 99.8444 88.5463 99.72 88.6639 99.651L92.9994 97.1398C93.0587 97.1057 93.1112 97.0897 93.1773 97.0897V97.0878Z" fill="#404137"/>
</g>
<path d="M55.3242 86.1035C55.0521 86.103 54.7985 86.1706 54.5629 86.3066L41.9105 93.5872C41.4378 93.8602 41.1502 94.3859 41.1502 94.9315V109.543C41.1497 109.677 41.1667 109.809 41.2012 109.938C41.2357 110.067 41.2862 110.189 41.3527 110.305C41.4198 110.421 41.5004 110.526 41.5947 110.62C41.6894 110.715 41.7948 110.795 41.9105 110.862L54.5629 118.168C54.6785 118.235 54.8005 118.286 54.9297 118.321C55.0584 118.356 55.1901 118.373 55.3237 118.373C55.4568 118.373 55.5885 118.356 55.7172 118.321C55.8464 118.286 55.9684 118.235 56.084 118.168L68.7364 110.862C68.852 110.795 68.9575 110.715 69.0517 110.62C69.1464 110.526 69.2271 110.421 69.2937 110.305C69.3607 110.189 69.4112 110.066 69.4457 109.937C69.4802 109.808 69.4972 109.677 69.4972 109.543V94.932C69.4972 94.3859 69.2096 93.8602 68.7359 93.5877L56.0835 86.3071C55.8484 86.1706 55.5948 86.103 55.3227 86.104L55.3242 86.1035ZM130.985 99.1426C130.934 99.1426 130.878 99.1426 130.832 99.1674L128.398 100.588C128.352 100.614 128.315 100.649 128.288 100.695C128.261 100.74 128.247 100.789 128.246 100.842V103.632C128.246 103.738 128.307 103.833 128.398 103.886L130.832 105.282C130.875 105.308 130.921 105.321 130.971 105.321C131.021 105.321 131.068 105.308 131.111 105.282L133.545 103.886C133.635 103.834 133.697 103.738 133.697 103.632V100.842C133.697 100.737 133.635 100.641 133.545 100.588L131.111 99.1669C131.066 99.1402 131.035 99.1422 130.984 99.1422L130.985 99.1426Z" fill="#83CD29"/>
</svg>
