<svg width="48" height="48" viewBox="0 0 48 48" fill="none" xmlns="http://www.w3.org/2000/svg">
<path fill-rule="evenodd" clip-rule="evenodd" d="M19.5246 3C16.229 3 13.5574 5.5868 13.5574 8.77777V12.7778H23.8852V13.8889H8.96721C5.67161 13.8889 3 16.4757 3 19.6667L3 28.3333C3 31.5243 5.67161 34.1111 8.96721 34.1111H12.4098V29.2222C12.4098 26.0312 15.0814 23.4444 18.377 23.4444H29.3934C32.182 23.4444 34.4426 21.2556 34.4426 18.5555V8.77777C34.4426 5.5868 31.771 3 28.4754 3H19.5246ZM18.1475 10.1111C19.2883 10.1111 20.2131 9.21568 20.2131 8.11111C20.2131 7.00654 19.2883 6.11111 18.1475 6.11111C17.0067 6.11111 16.082 7.00654 16.082 8.11111C16.082 9.21568 17.0067 10.1111 18.1475 10.1111Z" fill="url(#paint0_linear_1_2135)"/>
<path fill-rule="evenodd" clip-rule="evenodd" d="M28.4754 45C31.771 45 34.4426 42.4132 34.4426 39.2222V35.2222L24.1147 35.2222L24.1147 34.1111L39.0328 34.1111C42.3284 34.1111 45 31.5243 45 28.3334V19.6667C45 16.4757 42.3284 13.8889 39.0328 13.8889L35.5901 13.8889V18.7778C35.5901 21.9688 32.9185 24.5556 29.6229 24.5556L18.6066 24.5556C15.818 24.5556 13.5574 26.7444 13.5574 29.4445L13.5574 39.2222C13.5574 42.4132 16.229 45 19.5246 45H28.4754ZM29.8524 37.8889C28.7117 37.8889 27.7869 38.7843 27.7869 39.8889C27.7869 40.9935 28.7117 41.8889 29.8524 41.8889C30.9932 41.8889 31.918 40.9935 31.918 39.8889C31.918 38.7843 30.9932 37.8889 29.8524 37.8889Z" fill="url(#paint1_linear_1_2135)"/>
<defs>
<linearGradient id="paint0_linear_1_2135" x1="18.7213" y1="3" x2="18.7213" y2="34.1111" gradientUnits="userSpaceOnUse">
<stop stop-color="#327EBD"/>
<stop offset="1" stop-color="#1565A7"/>
</linearGradient>
<linearGradient id="paint1_linear_1_2135" x1="29.2787" y1="13.8889" x2="29.2787" y2="45" gradientUnits="userSpaceOnUse">
<stop stop-color="#FFDA4B"/>
<stop offset="1" stop-color="#F9C600"/>
</linearGradient>
</defs>
</svg>
