<svg width="48" height="48" viewBox="0 0 48 48" fill="none" xmlns="http://www.w3.org/2000/svg">
<circle cx="24" cy="24" r="21" fill="#028CB0"/>
<path d="M9.68308 24C9.68308 29.6735 12.9831 34.56 17.7554 36.8827L10.9269 18.1742C10.107 20.007 9.68311 21.9922 9.68308 24ZM24 38.3169C25.6627 38.3169 27.2619 38.025 28.7596 37.5046L28.6581 37.3142L24.2538 25.2565L19.9638 37.7331C21.2331 38.1138 22.5912 38.3169 24 38.3169ZM25.9673 17.2858L31.1458 32.6815L32.58 27.9092C33.1892 25.9292 33.6588 24.5077 33.6588 23.2765C33.6588 21.4996 33.0242 20.2812 32.4912 19.3419C31.755 18.1488 31.0823 17.1462 31.0823 15.9785C31.0823 14.6585 32.0723 13.44 33.4938 13.44H33.6715C31.0335 11.0182 27.5811 9.67711 24 9.68308C21.6288 9.68263 19.2948 10.2717 17.2077 11.3971C15.1207 12.5226 13.3462 14.1493 12.0438 16.1308L12.9577 16.1562C14.4554 16.1562 16.7654 15.9658 16.7654 15.9658C17.5523 15.9277 17.6412 17.0573 16.8669 17.1462C16.8669 17.1462 16.0927 17.2477 15.2169 17.2858L20.4462 32.7958L23.5812 23.4035L21.3473 17.2858C20.8469 17.2582 20.3475 17.2158 19.8496 17.1588C19.0754 17.1081 19.1642 15.9277 19.9385 15.9658C19.9385 15.9658 22.2992 16.1562 23.7081 16.1562C25.2058 16.1562 27.5158 15.9658 27.5158 15.9658C28.29 15.9277 28.3915 17.0573 27.6173 17.1462C27.6173 17.1462 26.8431 17.235 25.9673 17.2858ZM31.1965 36.375C33.3624 35.1156 35.1599 33.31 36.4094 31.1384C37.6589 28.9668 38.3166 26.5054 38.3169 24C38.3169 21.5123 37.6823 19.1769 36.5654 17.1335C36.7922 19.3816 36.4518 21.6508 35.5754 23.7335L31.1965 36.375ZM24 40.5C19.6239 40.5 15.4271 38.7616 12.3327 35.6673C9.23839 32.5729 7.5 28.3761 7.5 24C7.5 19.6239 9.23839 15.4271 12.3327 12.3327C15.4271 9.23839 19.6239 7.5 24 7.5C28.3761 7.5 32.5729 9.23839 35.6673 12.3327C38.7616 15.4271 40.5 19.6239 40.5 24C40.5 28.3761 38.7616 32.5729 35.6673 35.6673C32.5729 38.7616 28.3761 40.5 24 40.5Z" fill="white"/>
</svg>
