<svg xmlns="http://www.w3.org/2000/svg" viewBox="0 0 48 48" id="writing">
  <rect width="32" height="42" x="6" y="3" fill="#eff3f9" rx="5" ry="5"></rect>
  <path fill="#cfe0f3" d="M38,8v32c0,2.76-2.24,5-5,5H11c-2.16,0-4.01-1.38-4.7-3.3.53.2,1.1.3,1.7.3h25c1.1,0,2-.9,2-2v-4.24l-.05.09c-.38.67-.93,1.25-1.57,1.68l-2.21,1.45c-.33.22-.71.34-1.1.34-.55,0-1.08-.23-1.46-.64-.38-.4-.57-.93-.54-1.48l.16-2.65c.04-.77.27-1.53.66-2.2l6.11-10.58V5c0-.6-.1-1.17-.3-1.7,1.92.69,3.3,2.54,3.3,4.7Z"></path>
  <path fill="#b6cae5" d="M31,13H15c-.552,0-1-.448-1-1s.448-1,1-1h16c.552,0,1,.448,1,1s-.448,1-1,1ZM30.13,18c0-.552-.448-1-1-1H12c-.552,0-1,.448-1,1s.448,1,1,1h17.13c.552,0,1-.448,1-1ZM26.67,24c0-.552-.448-1-1-1h-13.67c-.552,0-1,.448-1,1s.448,1,1,1h13.67c.552,0,1-.448,1-1ZM23.21,30c0-.552-.448-1-1-1h-10.21c-.552,0-1,.448-1,1s.448,1,1,1h10.21c.552,0,1-.448,1-1ZM12,35c-.552,0-1,.448-1,1s.448,1,1,1h9.08c.552,0,1-.448,1-1s-.448-1-1-1h-9.08Z"></path>
  <path fill="#0ca0f2" d="M27.068,38.318c-.55,0-1.083-.231-1.463-.634-.379-.402-.57-.931-.536-1.488l.159-2.641c.046-.77.274-1.531.661-2.201l11.646-20.171c.535-.926,1.531-1.5,2.601-1.5.524,0,1.042.139,1.498.402l.866.5c.694.401,1.19,1.048,1.398,1.822s.101,1.583-.3,2.277l-11.645,20.17c-.386.668-.931,1.247-1.575,1.673l-2.208,1.458c-.331.218-.71.333-1.1.333Z"></path>
  <path fill="#0588e2" d="M43.896,12.407c-.208-.774-.704-1.421-1.398-1.822l-.287-.166c.114.713-.003,1.438-.37,2.073l-12.26,21.236c-.406.704-.98,1.312-1.658,1.761l-2.325,1.535c-.103.068-.218.106-.329.155.087.182.194.355.336.506.379.403.913.634,1.463.634.389,0,.769-.115,1.1-.333l2.208-1.458c.645-.426,1.189-1.004,1.575-1.673l11.645-20.17c.401-.694.508-1.503.3-2.277Z"></path>
  <path fill="#0588e2" d="M42.498,10.585l-.866-.5c-.456-.263-.974-.402-1.498-.402-1.07,0-2.066.575-2.601,1.5l-1.45,2.512,6.062,3.5,1.45-2.511c.401-.694.508-1.503.3-2.277s-.704-1.421-1.398-1.822Z"></path>
  <path fill="#0075d3" d="M43.896,12.407c-.208-.774-.704-1.421-1.398-1.822l-.287-.166c.114.713-.003,1.438-.37,2.073l-1.96,3.396,2.266,1.308,1.45-2.511c.401-.694.508-1.503.3-2.277Z"></path>
  <rect width="2" height="7" x="38.065" y="12.031" fill="#eff3f9" transform="rotate(-60.002 39.065 15.531)"></rect>
  <rect width="2" height="2.616" x="39.964" y="15.319" fill="#cfe0f3" transform="rotate(-60.001 40.964 16.627)"></rect>
</svg>
