<svg width="48" height="48" viewBox="0 0 48 48" fill="none" xmlns="http://www.w3.org/2000/svg">
<g clip-path="url(#clip0_17_74)">
<path d="M47.5391 19.5474H24.5112V28.7747H37.7431C37.5304 30.0805 37.0528 31.3652 36.3534 32.5366C35.552 33.8786 34.5613 34.9004 33.5459 35.6785C30.5042 38.0093 26.958 38.4859 24.4952 38.4859C18.2738 38.4859 12.9581 34.4649 10.9002 29.0011C10.8172 28.8029 10.762 28.5981 10.6949 28.3956C10.2401 27.005 9.99169 25.5323 9.99169 24.0015C9.99169 22.4084 10.2607 20.8835 10.7513 19.4432C12.6864 13.7628 18.122 9.52012 24.4997 9.52012C25.7824 9.52012 27.0178 9.67282 28.1892 9.97738C30.8665 10.6734 32.7603 12.0442 33.9207 13.1286L40.9225 6.27151C36.6634 2.36633 31.1111 5.90435e-09 24.488 5.90435e-09C19.1933 -0.000113959 14.305 1.64956 10.2992 4.43757C7.05062 6.69857 4.38633 9.72576 2.58825 13.2415C0.915782 16.5013 0 20.1138 0 23.9979C0 27.8822 0.917181 31.5322 2.58966 34.7619V34.7837C4.3562 38.2124 6.93949 41.1646 10.0792 43.4152C12.8221 45.3814 17.7403 48 24.488 48C28.3684 48 31.8075 47.3004 34.8405 45.9893C37.0285 45.0435 38.9671 43.8098 40.7222 42.2244C43.0413 40.1294 44.8575 37.5382 46.0972 34.557C47.3369 31.5757 48 28.2044 48 24.5493C48 22.8471 47.829 21.1184 47.5391 19.5473V19.5474Z" fill="white"/>
</g>
<defs>
<clipPath id="clip0_17_74">
<rect width="48" height="48" fill="white"/>
</clipPath>
</defs>
</svg>
