<svg width="48" height="48" viewBox="0 0 48 48" fill="none" xmlns="http://www.w3.org/2000/svg">
<path d="M24 0.0956421C10.5341 0.0956421 0.0955811 9.95955 0.0955811 23.2829C0.0955811 30.2525 2.95168 36.2735 7.60251 40.4338C7.99359 40.7828 8.22881 41.2733 8.24506 41.7964L8.3751 46.0494C8.41622 47.4053 9.81797 48.2878 11.0581 47.7399L15.8027 45.645C16.2052 45.4681 16.6556 45.4346 17.0792 45.5522C19.2602 46.1517 21.5799 46.4711 23.999 46.4711C37.4648 46.4711 47.9034 36.6072 47.9034 23.2838C47.9034 9.9605 37.4658 0.0956421 24 0.0956421ZM38.813 17.0955L30.4905 29.958C30.0679 30.611 29.1968 30.7975 28.5437 30.3748L20.8341 25.3865C20.5357 25.1933 20.1494 25.1991 19.8569 25.4008L11.1671 31.3941C9.89925 32.2681 8.34929 30.764 9.18594 29.4713L17.5094 16.6088C17.9321 15.9557 18.8032 15.7693 19.4553 16.1919L27.1668 21.1812C27.4651 21.3744 27.8514 21.3686 28.144 21.1669L36.8318 15.1745C38.0997 14.2996 39.6497 15.8046 38.813 17.0974V17.0955Z" fill="white"/>
</svg>
